<?xml version="1.0" standalone="no"?><!DOCTYPE svg PUBLIC "-//W3C//DTD SVG 1.1//EN" "http://www.w3.org/Graphics/SVG/1.1/DTD/svg11.dtd"><svg t="1531930422715" class="icon" style="" viewBox="0 0 1152 1024" version="1.1" xmlns="http://www.w3.org/2000/svg" p-id="4154" xmlns:xlink="http://www.w3.org/1999/xlink" width="225" height="200"><defs><style type="text/css"></style></defs><path d="M768 770.612v-52.78c70.498-39.728 128-138.774 128-237.832 0-159.058 0-288-192-288s-192 128.942-192 288c0 99.058 57.502 198.104 128 237.832v52.78C422.898 788.36 256 895.032 256 1024h896c0-128.968-166.898-235.64-384-253.388z" p-id="4155"></path><path d="M327.196 795.328c55.31-36.15 124.08-63.636 199.788-80.414-15.054-17.786-28.708-37.624-40.492-59.022C456.078 600.658 440 539.836 440 480c0-86.042 0-167.31 30.6-233.762 29.706-64.506 83.128-104.496 159.222-119.488C612.908 50.27 567.882 0 448 0c-192 0-192 128.942-192 288 0 99.058 57.502 198.104 128 237.832v52.78C166.898 596.36 0 703.032 0 832h279.006c14.518-12.91 30.596-25.172 48.19-36.672z" p-id="4156"></path></svg>