<?xml version="1.0" standalone="no"?><!DOCTYPE svg PUBLIC "-//W3C//DTD SVG 1.1//EN" "http://www.w3.org/Graphics/SVG/1.1/DTD/svg11.dtd"><svg t="1531934155259" class="icon" style="" viewBox="0 0 1024 1024" version="1.1" xmlns="http://www.w3.org/2000/svg" p-id="26121" xmlns:xlink="http://www.w3.org/1999/xlink" width="64" height="64"><defs><style type="text/css"></style></defs><path d="M113.777778 284.444444v654.222223a28.444444 28.444444 0 0 1-56.888889 0V85.333333a28.444444 28.444444 0 1 1 56.888889 0v142.222223h56.888889V199.111111a28.444444 28.444444 0 0 1 28.444444-28.444444h85.333333a56.888889 56.888889 0 0 1 56.888889-56.888889h568.888889a56.888889 56.888889 0 0 1 56.888889 56.888889v256a28.444444 28.444444 0 0 1-28.444444 28.444444h-26.254223l-1.678222-6.684444c0.711111 3.413333 1.024 4.920889 1.194667 6.684444h-22.414222a5.688889 5.688889 0 0 0-5.688889 5.688889c0 0.284444 4.152889 17.237333 12.458666 50.744889-2.218667 0.284444-4.494222 0.455111-6.769777 0.455111h6.883555L995.555556 824.888889a56.888889 56.888889 0 0 1-56.888889 56.888889h-170.666667a56.888889 56.888889 0 0 1-56.888889-56.888889l-25.884444-201.955556a28.444444 28.444444 0 0 0-28.302223-25.6H540.444444a56.888889 56.888889 0 0 1-56.888888-56.888889v-113.777777a28.444444 28.444444 0 0 0-28.444445-28.444445h-113.777778a56.888889 56.888889 0 0 1-56.888889-56.888889H199.111111a28.444444 28.444444 0 0 1-28.444444-28.444444v-28.444445H113.777778z m113.777778-56.888888v56.888888h56.888888V227.555556H227.555556z m455.111111 28.444444a28.444444 28.444444 0 0 0 0 56.888889h113.777777a28.444444 28.444444 0 0 0 0-56.888889h-113.777777z" p-id="26122"></path></svg>