<?xml version="1.0" standalone="no"?><!DOCTYPE svg PUBLIC "-//W3C//DTD SVG 1.1//EN" "http://www.w3.org/Graphics/SVG/1.1/DTD/svg11.dtd"><svg t="1531933974257" class="icon" style="" viewBox="0 0 1024 1024" version="1.1" xmlns="http://www.w3.org/2000/svg" p-id="24729" xmlns:xlink="http://www.w3.org/1999/xlink" width="64" height="64"><defs><style type="text/css"></style></defs><path d="M678.832 100.32c10.912 0 19.808 8.864 19.808 19.808s-8.864 19.808-19.808 19.808-19.808-8.864-19.808-19.808c0-10.912 8.864-19.808 19.808-19.808zM727.664 69.952c0 10.944 8.864 19.808 19.808 19.808s19.808-8.864 19.808-19.808c0-10.912-8.864-19.808-19.808-19.808s-19.808 8.864-19.808 19.808zM727.664 170.272c0 10.912 8.864 19.808 19.808 19.808s19.808-8.864 19.808-19.808c0-10.944-8.864-19.808-19.808-19.808s-19.808 8.864-19.808 19.808zM812.144 19.808c0 10.944 8.864 19.808 19.808 19.808s19.808-8.864 19.808-19.808-8.864-19.808-19.808-19.808-19.808 8.864-19.808 19.808zM812.144 120.096c0 10.944 8.864 19.808 19.808 19.808s19.808-8.864 19.808-19.808c0-10.912-8.864-19.808-19.808-19.808s-19.808 8.864-19.808 19.808zM812.144 220.416c0 10.944 8.864 19.808 19.808 19.808s19.808-8.864 19.808-19.808c0-10.912-8.864-19.808-19.808-19.808s-19.808 8.864-19.808 19.808zM314.288 639.552l-15.264 69.952-15.264-69.952-69.952-15.264 69.952-15.264 15.264-69.952 15.264 69.952 69.952 15.264-69.952 15.264zM414.704 739.232l-10.08 46.176-10.048-46.176-46.208-10.08 46.208-10.08 10.048-46.176 10.08 46.176 46.208 10.08-46.208 10.08zM593.072 95.84l0-11.68-290.4-46.4c0 0-90.976 66.048-101.152 73.472-15.008 11.008-12.256 29.088 0 35.168 40.096 19.872 74.112 43.392 82.4 72.736l0 50.048c-17.856 41.312-54.88 89.888-92.608 127.584-26.528 26.496-31.328 43.104-31.328 80 0 159.68 0 515.424 0 515.424l31.872 31.808 301.92 0 31.904-31.808c0 0 0-355.744 0-515.424 0-36.896-4.8-53.536-31.328-80.032-38.464-38.4-76.096-88.064-93.568-129.856l0-47.328c12.384-9.504 26.848-17.664 42.208-24.64 25.12 41.888 72.864 114.848 127.392 164.032 1.76 1.6 3.968 2.368 6.176 2.368 2.528 0 5.056-1.024 6.848-3.04 2.88-3.168 2.976-7.712 0.768-11.136-0.192-0.48-0.512-0.992-1.024-1.504-48.224-49.184-85.952-121.568-105.664-164.096 57.824-19.36 115.52-24.992 115.52-24.992l0-12.16 21.12-3.168 0-42.24-21.12-3.168z" p-id="24730"></path></svg>