<?xml version="1.0" standalone="no"?><!DOCTYPE svg PUBLIC "-//W3C//DTD SVG 1.1//EN" "http://www.w3.org/Graphics/SVG/1.1/DTD/svg11.dtd"><svg t="1531933912877" class="icon" style="" viewBox="0 0 1024 1024" version="1.1" xmlns="http://www.w3.org/2000/svg" p-id="24001" xmlns:xlink="http://www.w3.org/1999/xlink" width="64" height="64"><defs><style type="text/css"></style></defs><path d="M993.908755 993.714238a102.459718 102.459718 0 0 1-144.689161 0l-285.155377-285.24069c-68.29226 18.000833-143.580105 1.0664-197.070733-52.424227-53.575939-53.533283-70.510372-128.863784-52.509539-197.070732l124.726152 124.726151 144.689161-144.689161-124.683496-124.726151c68.249604-17.958177 143.580105-1.023744 197.070732 52.466883 53.447971 53.447971 70.382404 128.778472 52.381572 197.028076l284.899441 285.326002c40.139299 39.840706 40.139299 104.805799 0.341248 144.689161v-0.085312z m-397.17004 29.731234h-169.770891l-54.215779-126.901608c-13.180705-5.459968-21.370657-8.701825-34.466051-14.161793l-128.223944 51.272515-120.119303-120.076647 51.315171-128.05332a3424.765142 3424.765142 0 0 1-14.161793-34.380738l-126.944264-54.599684V426.730651l126.944264-54.301092c4.734816-11.474465 9.512289-22.948929 14.161793-34.423394L89.942747 209.995501l120.119303-120.119303 127.968008 51.315171c13.351329-5.715904 21.285345-9.000417 34.636675-14.503041l54.301091-126.645672h169.813547l54.258435 126.645672c13.393985 5.75856 21.328001 9.043073 34.721986 14.503041l127.968008-51.315171 120.119304 120.119303-51.315172 128.010664c5.715904 13.308673 9.000417 21.328001 14.460385 34.67933l126.645672 54.343748v169.77089l-96.061318 41.248355-110.308423-110.308423a307.464467 307.464467 0 0 0-88.681829-233.413647 302.431059 302.431059 0 0 0-215.88203-89.279013c-26.745314 0-53.490627 3.583104-79.425477 10.408064a305.502291 305.502291 0 0 0-217.502957 217.502958c-27.85437 105.701575 2.175456 218.995918 78.870949 295.734067a302.345747 302.345747 0 0 0 233.37099 88.681829l109.967175 110.009831-41.205698 96.061318h-0.042656z" p-id="24002"></path></svg>