<?xml version="1.0" standalone="no"?><!DOCTYPE svg PUBLIC "-//W3C//DTD SVG 1.1//EN" "http://www.w3.org/Graphics/SVG/1.1/DTD/svg11.dtd"><svg t="1531934079500" class="icon" style="" viewBox="0 0 1025 1024" version="1.1" xmlns="http://www.w3.org/2000/svg" p-id="25403" xmlns:xlink="http://www.w3.org/1999/xlink" width="64.0625" height="64"><defs><style type="text/css"></style></defs><path d="M456.062377 286.478079c-46.110342-1.550383-91.217797 27.99286-98.491806 68.800176l33.938555 78.02163c28.914904 23.103269 78.048238 44.708346 99.215318 67.137224L293.894335 500.437109l-9.645124 0c-28.265073 0-51.408253 23.089965-51.408253 51.381646l0 0c0 20.616516 12.344735 38.535467 29.965889 46.683421-15.52123 8.871467-25.989131 25.591046-25.989131 44.661271l0 0c0 23.965957 16.493417 44.206902 38.783119 49.858893-7.77443 9.047484-12.446047 20.693267-12.446047 33.439157l0 0c0 28.29168 23.117596 51.381646 51.383692 51.381646l1.645555 0c-9.019853 9.296159-14.647284 21.991905-14.647284 35.937168l0 0c0 28.290657 23.14318 51.381646 51.359132 51.381646l100.289841 0 126.279996 0 1.676256 0 44.734953-44.786121 141.789968-14.719942 0 65.700433 191.075782 0 0-396.386437L767.666898 474.969889l0 49.909037-65.716806-0.049121C668.413715 404.138353 477.431058 413.919583 456.062377 286.478079L456.062377 286.478079zM334.828546 281.39098l-22.591591 22.919065 77.947949 179.151646L263.353319 483.461691l-57.880975-132.641172c-44.708346 5.388989-90.619134-4.898802-126.555278-35.113367-20.542834-75.738525-16.64692-134.815802-3.048575-187.134841 8.446775-3.223569 16.843405-6.447138 25.264595-9.658427 15.21934 39.934393 30.46631 79.945538 45.656996 119.881978 49.332888 2.78762 85.672234-11.083961 120.560463-46.008007-15.196826-39.94872-30.440726-79.948608-45.660066-119.896305 8.422214-3.211289 16.821914-6.373457 25.265619-9.596003 44.984652 29.977146 87.170427 71.400522 122.331891 141.628278C364.969429 233.909341 352.573527 259.724502 334.828546 281.39098L334.828546 281.39098zM449.513926 886.907232l21.017671 48.133516c22.540424 37.684035 109.659682 29.339596 118.356156-18.17172l-13.06927-29.961796L449.513926 886.907232 449.513926 886.907232z" p-id="25404"></path></svg>