<?xml version="1.0" standalone="no"?><!DOCTYPE svg PUBLIC "-//W3C//DTD SVG 1.1//EN" "http://www.w3.org/Graphics/SVG/1.1/DTD/svg11.dtd"><svg t="1531931193026" class="icon" style="" viewBox="0 0 1024 1024" version="1.1" xmlns="http://www.w3.org/2000/svg" p-id="11591" xmlns:xlink="http://www.w3.org/1999/xlink" width="64" height="64"><defs><style type="text/css"></style></defs><path d="M0 0" p-id="11592"></path><path d="M925.866667 445.883733c58.88 0 98.133333-56.354133 98.133333-115.2v-85.333333c0-58.811733-39.253333-106.666667-98.133333-106.666667H819.2v-42.666666c0-11.810133-5.256533-21.333333-17.066667-21.333334S785.066667 84.206933 785.066667 96.017067v42.666666H648.533333v-85.333333c0-11.810133-5.256533-21.333333-17.066666-21.333333S614.4 41.540267 614.4 53.3504v85.333333H286.856533a175.217778 175.217778 0 0 0-130.3552 58.299734c-33.1776 37.000533-49.0496 82.432-43.554133 131.754666l2.116267 14.7456h-21.162667c-11.810133 0-21.333333 22.3232-21.333333 34.133334s9.5232 34.133333 21.333333 34.133333h25.941333l16.861867 151.631644a21.390222 21.390222 0 0 0 21.1968 19.0464h46.933333v68.266667c0 11.844267 22.3232 21.333333 34.133334 21.333333s34.133333-9.489067 34.133333-21.333333v-68.266667h55.466667c8.3968 0 16.0768-13.5168 19.490133-21.230933l58.436267-136.226133 261.0176 29.457066-28.4672 230.4H115.2C56.354133 684.817067 0 741.182578 0 800.017067v170.666666c0 11.844267 18.056533 21.333333 29.866667 21.333334h981.333333c11.810133 0 12.8-9.489067 12.8-21.333334v-170.666666c0-58.823111-39.253333-115.2-98.133333-115.2H887.466667v-238.933334h38.4z" p-id="11593"></path></svg>