<?xml version="1.0" standalone="no"?><!DOCTYPE svg PUBLIC "-//W3C//DTD SVG 1.1//EN" "http://www.w3.org/Graphics/SVG/1.1/DTD/svg11.dtd"><svg t="1534555724843" class="icon" style="" viewBox="0 0 1024 1024" version="1.1" xmlns="http://www.w3.org/2000/svg" p-id="1039" xmlns:xlink="http://www.w3.org/1999/xlink" width="200" height="200"><defs><style type="text/css"></style></defs><path d="M511.936 705.728c-105.888 0-192-86.112-192-192V257.952c0-105.888 86.112-192 192-192s192 86.112 192 192v255.776c0 105.856-86.112 192-192 192z m0-575.776c-70.592 0-128 57.408-128 128v255.776c0 70.592 57.408 128 128 128s128-57.408 128-128V257.952c0-70.592-57.408-128-128-128zM864 479.776V352c0-17.664-14.304-32-32-32s-32 14.336-32 32v127.776c0 160.16-129.184 290.464-288 290.464-158.784 0-288-130.304-288-290.464V352c0-17.664-14.336-32-32-32s-32 14.336-32 32v127.776c0 184.608 140.864 336.48 320 352.832V896H288c-17.664 0-32 14.304-32 32s14.336 32 32 32h448c17.696 0 32-14.304 32-32s-14.304-32-32-32H544v-63.36c179.136-16.384 320-168.256 320-352.864z" fill="#0b226d" p-id="1040"></path></svg>